<?xml version="1.0" encoding="UTF-8"?>
<!DOCTYPE svg PUBLIC "-//W3C//DTD SVG 1.1//EN" "http://www.w3.org/Graphics/SVG/1.1/DTD/svg11.dtd">
<svg version="1.1" xmlns="http://www.w3.org/2000/svg" xmlns:xlink="http://www.w3.org/1999/xlink" x="0px" y="0px" width="1249" height="1249" viewBox="0, 0, 1249, 1249">
  <g id="Layer 2">
    <g>
      <path d="M641.09,980.93 C486.504,980.93 361.188,854.142 361.188,697.742 C361.188,541.342 490.992,374.93 644.992,234.93 C792.992,370.93 920.992,541.342 920.992,697.742 C920.992,854.142 795.676,980.93 641.09,980.93 z" fill="#73CDFB"/>
      <path d="M619.602,339.367 C574.076,364.118 464.813,501.609 441.625,547.984 C423.898,583.437 409.625,634.31 409.625,673.984 C409.625,694.836 395.948,730.978 417.625,743.984 C421.055,746.042 425.625,743.984 429.625,743.984 C458.36,743.984 471.381,720.716 479.625,695.984 C515.176,589.333 544.363,478.878 607.625,383.984 C615.442,372.259 628.516,356.659 623.625,341.984" fill="#FFFFFF" fill-opacity="0.525"/>
      <path d="M361.833,679.615 C524.469,1095.891 876.469,795.891 913.205,759.715 C897.353,843.718 836.509,919.225 756.28,955.914 C719.414,972.772 681.518,980.412 641.09,980.93 C619.83,980.923 598.584,978.51 577.877,973.678 C497.508,954.921 429.014,900.173 391.809,826.664 C372.335,788.189 362.889,748.029 361.279,705.051 C361.098,693.809 361.104,700.551 361.57,684.827 z" fill="#5191B3" fill-opacity="0.347"/>
      <path d="M861.402,646.953 C842.932,651.407 830.422,678.818 819.73,693.978 C804.45,715.641 796.707,823.793 846.755,815.145 C854.363,813.831 863.639,813.82 870.064,809.088 C898.834,787.901 945.696,631.619 856.276,647.07" fill="#FFFFFF" fill-opacity="0.274"/>
    </g>
    <g>
      <path d="M1015.918,567.859 C932.96,567.859 865.71,503.681 865.71,424.513 C865.71,345.345 935.369,261.109 1018.012,190.242 C1097.435,259.084 1166.125,345.345 1166.125,424.513 C1166.125,503.681 1098.875,567.859 1015.918,567.859 z" fill="#73CDFB"/>
      <path d="M1004.386,243.107 C979.955,255.636 921.32,325.232 908.876,348.707 C899.363,366.653 891.704,392.404 891.704,412.487 C891.704,423.042 884.364,441.337 895.997,447.92 C897.837,448.962 900.29,447.92 902.437,447.92 C917.857,447.92 924.845,436.142 929.269,423.623 C948.347,369.637 964.01,313.726 997.959,265.692 C1002.154,259.757 1009.17,251.86 1006.545,244.432" fill="#FFFFFF" fill-opacity="0.525"/>
      <path d="M866.056,415.337 C953.334,626.051 1142.232,474.195 1161.946,455.883 C1153.439,498.404 1120.788,536.625 1077.733,555.197 C1057.95,563.73 1037.613,567.597 1015.917,567.859 C1004.509,567.856 993.107,566.635 981.995,564.189 C938.865,554.694 902.109,526.981 882.143,489.772 C871.692,470.296 866.623,449.968 865.759,428.213 C865.662,422.522 865.665,425.935 865.915,417.975 z" fill="#5191B3" fill-opacity="0.347"/>
      <path d="M1134.146,398.804 C1124.235,401.059 1117.521,414.934 1111.783,422.607 C1103.583,433.573 1099.428,488.319 1126.286,483.941 C1130.369,483.276 1135.347,483.27 1138.795,480.875 C1154.234,470.151 1179.382,391.042 1131.396,398.863" fill="#FFFFFF" fill-opacity="0.274"/>
    </g>
    <g>
      <path d="M203.283,777.172 C147.516,777.172 102.308,726.784 102.308,664.627 C102.308,602.47 149.135,536.334 204.691,480.695 C258.082,534.745 304.258,602.47 304.258,664.627 C304.258,726.784 259.05,777.172 203.283,777.172 z" fill="#73CDFB"/>
      <path d="M195.531,522.201 C179.108,532.038 139.691,586.68 131.326,605.11 C124.931,619.2 119.782,639.418 119.782,655.185 C119.782,663.472 114.848,677.836 122.668,683.005 C123.905,683.823 125.554,683.005 126.997,683.005 C137.363,683.005 142.061,673.757 145.035,663.928 C157.859,621.543 168.389,577.646 191.211,539.933 C194.031,535.273 198.747,529.073 196.983,523.241" fill="#FFFFFF" fill-opacity="0.525"/>
      <path d="M102.541,657.423 C161.212,822.86 288.196,703.633 301.449,689.256 C295.73,722.641 273.78,752.649 244.838,767.23 C231.539,773.93 217.867,776.966 203.283,777.172 C195.614,777.169 187.949,776.21 180.479,774.29 C151.486,766.836 126.777,745.078 113.355,715.863 C106.33,700.573 102.922,684.612 102.341,667.532 C102.276,663.064 102.278,665.743 102.446,659.494 z" fill="#5191B3" fill-opacity="0.347"/>
      <path d="M282.761,644.442 C276.098,646.213 271.585,657.106 267.727,663.131 C262.215,671.74 259.422,714.722 277.477,711.286 C280.221,710.763 283.568,710.759 285.886,708.878 C296.264,700.458 313.17,638.348 280.912,644.489" fill="#FFFFFF" fill-opacity="0.274"/>
    </g>
  </g>
  <defs/>
</svg>
